# xmcd
#
# Track frame offsets:
#  150
#  13115
#  25835
#  39515
#  49906
#  60970
#  70962
#  83235
#  95166
#  109768
#  122661
#  131783
#  144248
#  156478
#  170819
#  182889
#  194201
#  206123
#  218992
#  229372
#
# Disc length: 3248 seconds
#
# Revision: 0
# Processed by: cddbd v1.5.1PL2 Copyright (c) Steve Scherf et al.
# Submitted via: Collectorz.com_Music_Collector 6.9
#
DISCID=370cae14
DTITLE=Various Artist - Roots Of R&B [CD2]
DYEAR=1900
DGENRE=
TTITLE0=The Crests - Sixteen Candles
TTITLE1=Little Sylvia - Blue Heaven
TTITLE2=Edna McGriff - Why Oh Why
TTITLE3=Sha-Weez - Feeling Sad
TTITLE4=The Pelicans - Ain't Gonna Do It
TTITLE5=The Crows - Gee
TTITLE6=The Spaniels - Goodnight Sweetheart Goodnight
TTITLE7=Bert Keyes and His Trio - Be With The One You Love
TTITLE8=The Buccaneers - The Stars Will Remember
TTITLE9=Lonnie Johnson - Will You Remember (The Answer To Tomorrow Night)
TTITLE10=The Blue Notes - Too Hot To Handle
TTITLE11=The Platters - I'll Need You All The Time
TTITLE12=Sonny Til - Edna McGriff - Good
TTITLE13=The Ebonaires - Baby You're The One
TTITLE14=Three Dots And A Dash - Old Black Mule
TTITLE15=The Crows - Call A Doctor
TTITLE16=Camile Howard - I'm Blue
TTITLE17=Dave Bartholomew - Bad Habit
TTITLE18=Bobby Mitchel - The Toppers - The Wedding Bells Are Ringing
TTITLE19=The Five Keys - The Glory Of Love
EXTD=
EXTT0=
EXTT1=
EXTT2=
EXTT3=
EXTT4=
EXTT5=
EXTT6=
EXTT7=
EXTT8=
EXTT9=
EXTT10=
EXTT11=
EXTT12=
EXTT13=
EXTT14=
EXTT15=
EXTT16=
EXTT17=
EXTT18=
EXTT19=
PLAYORDER=
